<svg width="691" height="625" viewBox="0 0 691 625" fill="none" xmlns="http://www.w3.org/2000/svg">
<path fill-rule="evenodd" clip-rule="evenodd" d="M247.129 16.463C336.202 2.78619 443.393 -16.282 513.455 25.3753C583.675 67.1267 545.444 149.596 574.989 211.401C605.282 274.773 710.678 325.094 687.77 390.032C664.996 454.589 545.193 467.826 470.514 507.562C394.623 547.943 341.081 632.286 247.129 624.495C150.996 616.523 121.933 525.644 58.4493 473.39C12.8654 435.869 -46.9454 408.154 -72.0247 361.793C-98.1059 313.58 -106.642 259.734 -83.641 210.725C-60.766 161.985 -2.88763 128.752 52.6598 96.1284C111.843 61.3699 172.261 27.9586 247.129 16.463Z" fill="#6F6BC8"/>
</svg>
